<?xml version="1.0" standalone="no"?>
<!DOCTYPE svg PUBLIC "-//W3C//DTD SVG 20010904//EN"
 "http://www.w3.org/TR/2001/REC-SVG-20010904/DTD/svg10.dtd">
<svg version="1.0" xmlns="http://www.w3.org/2000/svg"
 width="205.000000pt" height="205.000000pt" viewBox="0 0 205.000000 205.000000"
 preserveAspectRatio="xMidYMid meet">

<g transform="translate(0.000000,205.000000) scale(0.100000,-0.100000)"
fill="#000000" stroke="none">
<path d="M730 1805 c0 -40 -4 -57 -15 -61 -11 -5 -15 -22 -15 -70 l0 -64 65 0
65 0 0 64 c0 48 -4 65 -15 70 -11 4 -15 21 -15 61 l0 55 -35 0 -35 0 0 -55z"/>
<path d="M910 1805 c0 -40 -4 -57 -15 -61 -11 -5 -15 -22 -15 -70 l0 -64 65 0
65 0 0 64 c0 48 -4 65 -15 70 -11 4 -15 21 -15 61 l0 55 -35 0 -35 0 0 -55z"/>
<path d="M1090 1805 c0 -40 -4 -57 -15 -61 -11 -5 -15 -22 -15 -70 l0 -64 65
0 65 0 0 64 c0 48 -4 65 -15 70 -11 4 -15 21 -15 61 l0 55 -35 0 -35 0 0 -55z"/>
<path d="M1270 1805 c0 -40 -4 -57 -15 -61 -11 -5 -15 -22 -15 -70 l0 -64 65
0 65 0 0 64 c0 48 -4 65 -15 70 -11 4 -15 21 -15 61 l0 55 -35 0 -35 0 0 -55z"/>
<path d="M645 1570 c-11 -4 -51 -40 -90 -79 l-70 -72 0 -394 0 -395 78 -77 77
-78 395 0 395 0 77 78 78 77 0 395 0 395 -78 77 -77 78 -383 2 c-210 1 -391
-2 -402 -7z m668 -144 c39 -17 112 -91 126 -129 15 -38 15 -506 0 -544 -14
-38 -87 -112 -126 -129 -40 -17 -505 -20 -550 -3 -38 14 -112 87 -129 126 -17
40 -20 505 -3 550 13 37 86 112 124 129 44 19 512 20 558 0z"/>
<path d="M737 1322 l-47 -48 0 -247 0 -248 46 -49 47 -50 251 0 252 0 47 48
47 48 0 250 0 251 -50 47 -49 46 -248 0 -249 0 -47 -48z"/>
<path d="M316 1345 c-4 -11 -21 -15 -61 -15 l-55 0 0 -35 0 -35 55 0 c40 0 57
-4 61 -15 5 -11 22 -15 70 -15 l64 0 0 65 0 65 -64 0 c-48 0 -65 -4 -70 -15z"/>
<path d="M1620 1295 l0 -65 64 0 c48 0 65 4 70 15 4 11 21 15 61 15 l55 0 0
35 0 35 -55 0 c-40 0 -57 4 -61 15 -5 11 -22 15 -70 15 l-64 0 0 -65z"/>
<path d="M316 1165 c-4 -11 -21 -15 -61 -15 l-55 0 0 -35 0 -35 55 0 c40 0 57
-4 61 -15 5 -11 22 -15 70 -15 l64 0 0 65 0 65 -64 0 c-48 0 -65 -4 -70 -15z"/>
<path d="M1620 1115 l0 -65 64 0 c48 0 65 4 70 15 4 11 21 15 61 15 l55 0 0
35 0 35 -55 0 c-40 0 -57 4 -61 15 -5 11 -22 15 -70 15 l-64 0 0 -65z"/>
<path d="M316 985 c-4 -11 -21 -15 -61 -15 l-55 0 0 -35 0 -35 55 0 c40 0 57
-4 61 -15 5 -11 22 -15 70 -15 l64 0 0 65 0 65 -64 0 c-48 0 -65 -4 -70 -15z"/>
<path d="M1620 935 l0 -65 64 0 c48 0 65 4 70 15 4 11 21 15 61 15 l55 0 0 35
0 35 -55 0 c-40 0 -57 4 -61 15 -5 11 -22 15 -70 15 l-64 0 0 -65z"/>
<path d="M316 805 c-4 -11 -21 -15 -61 -15 l-55 0 0 -35 0 -35 55 0 c40 0 57
-4 61 -15 5 -11 22 -15 70 -15 l64 0 0 65 0 65 -64 0 c-48 0 -65 -4 -70 -15z"/>
<path d="M1620 755 l0 -65 64 0 c48 0 65 4 70 15 4 11 21 15 61 15 l55 0 0 35
0 35 -55 0 c-40 0 -57 4 -61 15 -5 11 -22 15 -70 15 l-64 0 0 -65z"/>
<path d="M700 376 c0 -48 4 -65 15 -70 11 -4 15 -21 15 -61 l0 -55 35 0 35 0
0 55 c0 40 4 57 15 61 11 5 15 22 15 70 l0 64 -65 0 -65 0 0 -64z"/>
<path d="M880 376 c0 -48 4 -65 15 -70 11 -4 15 -21 15 -61 l0 -55 35 0 35 0
0 55 c0 40 4 57 15 61 11 5 15 22 15 70 l0 64 -65 0 -65 0 0 -64z"/>
<path d="M1060 376 c0 -48 4 -65 15 -70 11 -4 15 -21 15 -61 l0 -55 35 0 35 0
0 55 c0 40 4 57 15 61 11 5 15 22 15 70 l0 64 -65 0 -65 0 0 -64z"/>
<path d="M1240 376 c0 -48 4 -65 15 -70 11 -4 15 -21 15 -61 l0 -55 35 0 35 0
0 55 c0 40 4 57 15 61 11 5 15 22 15 70 l0 64 -65 0 -65 0 0 -64z"/>
</g>
</svg>
